<svg width="24" height="24" viewBox="0 0 24 24" fill="none" xmlns="http://www.w3.org/2000/svg">
<path fill-rule="evenodd" clip-rule="evenodd" d="M11.8421 7.34288C12.1771 7.72715 12.166 8.29495 11.8349 8.66548L11.7454 8.75378L9.1681 11H17.5001C18.0524 11 18.5001 11.4477 18.5001 12C18.5001 12.5129 18.1141 12.9355 17.6167 12.9933L17.5001 13H9.1691L11.7454 15.2462C12.1617 15.6092 12.205 16.2409 11.8421 16.6572C11.5071 17.0414 10.943 17.1078 10.5308 16.8303L10.4312 16.7538L5.82016 12.7334L5.74633 12.6572L5.70445 12.6058L5.64777 12.5233L5.59195 12.4193L5.55287 12.3214L5.52669 12.2294L5.50617 12.1108L5.50098 11.9573C5.50365 11.8938 5.51235 11.8305 5.52714 11.7682L5.55956 11.6595L5.59499 11.5743L5.6465 11.4788L5.6898 11.4136L5.76701 11.3199L5.84296 11.2462L10.4312 7.24624C10.8475 6.88332 11.4791 6.92658 11.8421 7.34288Z" fill="black"/>
</svg>
